<svg viewBox="0 0 1024 768" xmlns="http://www.w3.org/2000/svg" xmlns:xlink="http://www.w3.org/1999/xlink">
  <defs>
    <path id="path-1" d="M0 0h30v34H0z"/>
  </defs>
  <g id="George_FinalDashboard" stroke="none" stroke-width="1" fill="none" fill-rule="evenodd">
    <path id="Background" fill="#000" d="M0 0h1024v768H0z"/>
    <g id="Main_Interface" transform="translate(47 242.754)">
      <path d="M0 .246v283c0 55.228 44.772 100 100 100h730c55.228 0 100-44.772 100-100V0h0" id="LogoDivider" stroke="#E3AB3A"/>
      <g id="Speedometer" transform="translate(253.46 108.5)">
        <path d="M210.54.746h-.084c-20.601 0-40.533 2.977-59.335 8.545C64.068 34.895.54 115.373.54 210.746h69.178c0-63.922 42.582-117.919 100.967-135.093 12.62-3.736 25.972-5.732 39.77-5.732h.085c77.777 0 140.827 63.048 140.827 140.825h69.173c0-116.005-94.024-210-210-210z" id="Speed_Outline" stroke="#E3AB3A" stroke-width="3"/>
        <path d="M408.54 197.746h-46.75c-6.708-77.633-72.085-138.563-151.75-138.563-14.964 0-29.392 2.136-43.031 6.123-59.094 17.324-103.28 69.379-108.719 132.44H11.54C17.09 113.573 75.396 43.74 153.82 20.776c17.839-5.222 36.691-8.03 56.22-8.03 105.421 0 191.68 81.676 198.5 185z" id="Speed_Inside" fill="#B12B28"/>
        <g id="Speed_Numbers" transform="translate(131.54 92.746)">
          <path d="M6.213 107.442V87.257l18.81 17.435 18.865-17.435v20.185h5.885V80.767h-6.71l-18.04 16.83-17.985-16.83H.328v26.675h5.885zm54.67 0v-10.45h37.51c.696 0 1.384-.128 2.062-.385a5.195 5.195 0 001.788-1.128c.513-.495.925-1.1 1.237-1.815.312-.715.468-1.549.468-2.502v-4.565c0-.88-.156-1.687-.468-2.42-.312-.733-.724-1.348-1.237-1.843a5.555 5.555 0 00-1.788-1.155 5.447 5.447 0 00-2.063-.412H54.998v26.675h5.885zm35.09-16.28h-35.09v-4.565h35.035c.623 0 1.136.156 1.54.467.403.312.605.853.605 1.623v.605c0 .733-.22 1.228-.66 1.485-.44.257-.917.385-1.43.385zm19.36 16.28v-10.45h37.18v10.45h5.885V80.767h-5.886v10.395h-37.18V80.767h-5.884v26.675h5.885z" id="MPH" fill="#E3AB3A" fill-rule="nonzero"/>
          <text id="0" font-family="ProximaNova-Light, Proxima Nova" font-size="55" font-weight="300" fill="#FFF">
            <tspan x="62" y="51">0</tspan>
          </text>
        </g>
      </g>
      <g id="Oil" transform="translate(708 120.246)">
        <path d="M166 117c0 45.842-37.164 83-83.002 83C37.16 200 0 162.842 0 117s37.16-83 82.998-83C128.836 34 166 71.158 166 117z" id="Oil_Out" stroke="#E3AB3A" stroke-width="3"/>
        <path d="M138.333 117c0 30.561-24.775 55.333-55.334 55.333-30.559 0-55.332-24.772-55.332-55.333S52.44 61.667 82.999 61.667 138.333 86.439 138.333 117z" id="Oil_In" stroke="#E3AB3A" stroke-width="3"/>
        <path d="M160 117c0 42.528-34.477 77-77.001 77C40.474 194 6 159.528 6 117s34.474-77 76.999-77C125.523 40 160 74.472 160 117zm-15.4 0c0 34.023-27.582 61.6-61.601 61.6-34.02 0-61.599-27.577-61.599-61.6 0-34.023 27.58-61.6 61.599-61.6 34.02 0 61.601 27.577 61.601 61.6z" id="Fuel_Fill" fill="#B12B28"/>
        <path d="M37.445 15c.38 0 .755-.07 1.125-.21.37-.14.695-.345.975-.615s.505-.6.675-.99c.17-.39.255-.845.255-1.365V3.63c0-.48-.085-.92-.255-1.32a3.01 3.01 0 00-.675-1.005 3.03 3.03 0 00-.975-.63A2.971 2.971 0 0037.445.45h-20.64c-.4 0-.78.07-1.14.21-.36.14-.68.345-.96.615a3.01 3.01 0 00-.675 1.005c-.17.4-.255.85-.255 1.35v8.19c0 .52.085.975.255 1.365.17.39.395.72.675.99s.6.475.96.615.74.21 1.14.21h20.64zm-1.32-3.18h-18.09c-.3 0-.55-.125-.75-.375-.2-.25-.3-.575-.3-.975V4.98c0-.4.085-.725.255-.975.17-.25.455-.375.855-.375h18.06c.36 0 .635.125.825.375.19.25.285.575.285.975v5.49c0 .4-.115.725-.345.975-.23.25-.495.375-.795.375zM70.175 15v-3.18h-11.76V3.63h11.76V.45h-26.7v3.18h11.73v8.19h-11.73V15h26.7zm29.7 0v-3.18h-22.35c-.3 0-.565-.125-.795-.375-.23-.25-.345-.575-.345-.975V.45h-3.21v11.37c0 .52.085.975.255 1.365.17.39.395.72.675.99s.6.475.96.615.74.21 1.14.21h23.67zm32.1 0L143.885.45h-3.84L128.075 15h3.9zm-.18-7.29c.4 0 .75-.135 1.05-.405.3-.27.45-.665.45-1.185V2.04c0-.5-.15-.89-.45-1.17-.3-.28-.65-.42-1.05-.42h-10.32c-.4 0-.755.135-1.065.405-.31.27-.465.665-.465 1.185v4.08c0 .52.155.915.465 1.185.31.27.665.405 1.065.405h10.32zm-1.41-2.34h-7.56c-.34 0-.51-.22-.51-.66V3.45c0-.44.18-.66.54-.66h7.53c.38 0 .57.22.57.66v1.26c0 .44-.19.66-.57.66zm20.34 9.63c.4 0 .75-.135 1.05-.405.3-.27.45-.665.45-1.185V9.33c0-.5-.15-.89-.45-1.17-.3-.28-.65-.42-1.05-.42h-10.32c-.4 0-.755.135-1.065.405-.31.27-.465.665-.465 1.185v4.08c0 .52.155.915.465 1.185.31.27.665.405 1.065.405h10.32zm-1.41-2.34h-7.59c-.34 0-.51-.22-.51-.66v-1.26c0-.44.18-.66.54-.66h7.56c.38 0 .57.22.57.66V12c0 .44-.19.66-.57.66z" id="OIL%" fill="#E3AB3A" fill-rule="nonzero"/>
        <text id="0" font-family="ProximaNova-Light, Proxima Nova" font-size="35" font-weight="300" fill="#FFF">
          <tspan x="72.36" y="129">0</tspan>
        </text>
      </g>
      <g id="Fuel" transform="translate(56 126.246)">
        <path d="M166 117c0 45.842-37.164 83-83.002 83C37.16 200 0 162.842 0 117s37.16-83 82.998-83C128.836 34 166 71.158 166 117z" id="Fuel_Out" stroke="#E3AB3A" stroke-width="3"/>
        <path d="M138.333 117c0 30.561-24.775 55.333-55.334 55.333-30.559 0-55.332-24.772-55.332-55.333S52.44 61.667 82.999 61.667 138.333 86.439 138.333 117z" id="Fuel_In" stroke="#E3AB3A" stroke-width="3"/>
        <path d="M160 117c0 42.528-34.477 77-77.001 77C40.474 194 6 159.528 6 117s34.474-77 76.999-77C125.523 40 160 74.472 160 117zm-15.4 0c0 34.023-27.582 61.6-61.601 61.6-34.02 0-61.599-27.577-61.599-61.6 0-34.023 27.58-61.6 61.599-61.6 34.02 0 61.601 27.577 61.601 61.6z" id="Fuel_Fill" fill="#B12B28"/>
        <path d="M5.135 15V9.3h23.49V6.12H5.135V3.63h23.49V.45h-26.7V15h3.21zm52.19 0V.45h-3.21v11.37h-19.23c-.3 0-.55-.125-.75-.375-.2-.25-.3-.575-.3-.975V.45h-3.21v11.37c0 .52.085.975.255 1.365.17.39.395.72.675.99s.6.475.96.615.74.21 1.14.21h23.67zm28.7 0v-3.18h-23.49V9.3h23.49V6.12h-23.49V3.63h23.49V.45h-26.7V15h26.7zm28.7 0v-3.18h-22.35c-.3 0-.565-.125-.795-.375-.23-.25-.345-.575-.345-.975V.45h-3.21v11.37c0 .52.085.975.255 1.365.17.39.395.72.675.99s.6.475.96.615.74.21 1.14.21h23.67zm30.1 0L156.735.45h-3.84L140.925 15h3.9zm-.18-7.29c.4 0 .75-.135 1.05-.405.3-.27.45-.665.45-1.185V2.04c0-.5-.15-.89-.45-1.17-.3-.28-.65-.42-1.05-.42h-10.32c-.4 0-.755.135-1.065.405-.31.27-.465.665-.465 1.185v4.08c0 .52.155.915.465 1.185.31.27.665.405 1.065.405h10.32zm-1.41-2.34h-7.56c-.34 0-.51-.22-.51-.66V3.45c0-.44.18-.66.54-.66h7.53c.38 0 .57.22.57.66v1.26c0 .44-.19.66-.57.66zm20.34 9.63c.4 0 .75-.135 1.05-.405.3-.27.45-.665.45-1.185V9.33c0-.5-.15-.89-.45-1.17-.3-.28-.65-.42-1.05-.42h-10.32c-.4 0-.755.135-1.065.405-.31.27-.465.665-.465 1.185v4.08c0 .52.155.915.465 1.185.31.27.665.405 1.065.405h10.32zm-1.41-2.34h-7.59c-.34 0-.51-.22-.51-.66v-1.26c0-.44.18-.66.54-.66h7.56c.38 0 .57.22.57.66V12c0 .44-.19.66-.57.66z" id="FUEL%" fill="#E3AB3A" fill-rule="nonzero"/>
        <text id="0" font-family="ProximaNova-Light, Proxima Nova" font-size="35" font-weight="300" fill="#FFF">
          <tspan x="72.36" y="128.5">0</tspan>
        </text>
      </g>
      <g id="Blinkers_Off" transform="translate(378 25.246)" stroke="#E3AB3A" stroke-width="2">
        <path d="M105 13.073h26.712V0L174 26l-42.288 25V38.43H105V13.073z" id="ArrowRight"/>
        <path d="M0 13.073h26.712V0L69 26 26.712 51V38.43H0V13.073z" id="ArrowLeft" transform="matrix(-1 0 0 1 69 0)"/>
      </g>
      <g id="Blinkers_On" transform="translate(378 25.246)" fill="#B12B28" stroke="#B12B28" stroke-width="2">
        <path d="M105 13.073h26.712V0L174 26l-42.288 25V38.43H105V13.073z" id="ArrowRight"/>
        <path d="M0 13.073h26.712V0L69 26 26.712 51V38.43H0V13.073z" id="ArrowLeft" transform="matrix(-1 0 0 1 69 0)"/>
      </g>
    </g>
    <g id="Logo_Whole" transform="translate(474.832 580.518)">
      <g id="Logo_TopCenter" transform="translate(.168 .482)">
        <path d="M72 7.223v7.71S57.917 8.931 36 7.772c-21.917 1.16-36 7.161-36 7.161v-7.71S14.083 1.227 36 .066c21.917 1.161 36 7.157 36 7.157" id="Fill-1" fill="#E8B964"/>
        <path d="M10.793 5.969l.124.637 4.829-.966a.386.386 0 00.186-.093c.054-.048.071-.123.05-.225l-.016-.085c-.02-.108-.063-.178-.127-.21a.338.338 0 00-.224-.023l-4.822.965zm5.004-1.847a.776.776 0 01.573.113c.083.055.156.13.22.223a.885.885 0 01.13.326l.123.636a.897.897 0 01.004.363.747.747 0 01-.336.494.827.827 0 01-.274.11L11.075 7.42l.284 1.459-.81.161-.724-3.723 5.972-1.195z" id="Fill-4" fill="#000"/>
        <path d="M23.767 6.074a.364.364 0 00.062-.261l-.145-1.425a.41.41 0 00-.1-.245.247.247 0 00-.22-.075l-4.619.486c-.103.011-.172.051-.209.12a.447.447 0 00-.04.26l.146 1.425c.011.103.045.185.103.245a.237.237 0 00.201.077l4.628-.487a.274.274 0 00.193-.12m.136-2.838a.773.773 0 01.466.38.88.88 0 01.1.335l.217 2.125a.91.91 0 01-.029.362.815.815 0 01-.146.275.733.733 0 01-.233.185.821.821 0 01-.283.086l-5.278.555a.785.785 0 01-.298-.024.73.73 0 01-.261-.134.794.794 0 01-.2-.238.898.898 0 01-.1-.348L17.64 4.67a.9.9 0 01.029-.356.74.74 0 01.375-.465.802.802 0 01.286-.085l5.279-.557c.098-.01.195 0 .294.029" id="Fill-6" fill="#000"/>
        <path d="M26.168 3.864l.026.65 4.917-.2a.402.402 0 00.203-.06c.057-.036.084-.106.08-.21l-.003-.086c-.005-.11-.035-.187-.09-.232a.325.325 0 00-.223-.062l-4.91.2zm5.224-1.043a.772.772 0 01.292.048.764.764 0 01.44.408.89.89 0 01.08.342l.025.648c.009.225-.04.407-.144.547a.768.768 0 01-.402.283l.646 1.485-.84.035-.715-1.46-4.547.186.058 1.486-.825.033-.15-3.793 6.082-.248z" id="Fill-8" fill="#000"/>
        <path d="M33.06 5.746l5.746.077a.318.318 0 00.206-.067c.06-.047.09-.122.09-.226l.002-.07c.001-.11-.022-.186-.07-.229a.322.322 0 00-.212-.066L33.839 5.1a.773.773 0 01-.537-.222c-.152-.146-.227-.351-.223-.618l.008-.65c.003-.265.084-.469.24-.61a.767.767 0 01.542-.208l6.094.081-.01.83-5.755-.077a.332.332 0 00-.213.055c-.05.04-.074.113-.076.223l-.001.07c-.001.105.027.18.085.228a.323.323 0 00.204.073l4.975.067a.75.75 0 01.538.234c.152.153.226.358.223.614l-.009.65c-.003.265-.082.469-.239.61a.766.766 0 01-.543.208l-6.094-.082.011-.829z" id="Fill-10" fill="#000"/>
        <path d="M41.65 2.958l5.295.354a.785.785 0 01.525.258c.067.075.12.166.156.272a.888.888 0 01.043.35l-.036.57-.825-.055.014-.22a.416.416 0 00-.056-.258.249.249 0 00-.205-.112l-4.634-.31c-.103-.006-.178.022-.225.084a.438.438 0 00-.083.249l-.092 1.43a.398.398 0 00.06.258c.047.069.11.105.186.11l4.642.31a.267.267 0 00.21-.084.363.363 0 00.105-.248l.015-.226.824.055-.038.578a.898.898 0 01-.088.35.785.785 0 01-.19.247.72.72 0 01-.26.144.805.805 0 01-.293.035l-5.296-.353a.795.795 0 01-.29-.075.725.725 0 01-.235-.176.8.8 0 01-.157-.27.899.899 0 01-.042-.359l.138-2.132a.906.906 0 01.088-.347.743.743 0 01.447-.393.787.787 0 01.296-.036" id="Fill-12" fill="#000"/>
        <path id="Fill-14" fill="#000" d="M49.461 3.55l-.184 1.467 5.173.668.184-1.467.818.106-.473 3.766-.818-.107.185-1.475-5.173-.668-.185 1.474-.82-.105.474-3.765z"/>
        <path id="Fill-16" fill="#000" d="M56.637 7.548l5.9 1.315-.176.81-6.706-1.494.803-3.708 6.706 1.494-.176.811-5.9-1.315-.137.634 5.9 1.316-.176.81-5.9-1.315z"/>
      </g>
      <g id="Logo_BotRight" transform="translate(36.168 44.482)">
        <g id="Group-3" fill="#E3AB3A">
          <path d="M0 0h36S33.852 35.38 0 45V0z" id="Fill-1"/>
        </g>
        <path d="M26.248 19.16a2.88 2.88 0 00-.624-.033c-1.054.052-1.999.689-2.777 1.736.81.502 1.376 1.17 1.594 1.974.161.572.135 1.176-.057 1.78A2.821 2.821 0 0024.28 24c-.257-.932-.97-1.677-2.012-2.204a6.332 6.332 0 00-1.087-.438c-.887-.283-1.916-.437-3.047-.47-.399-.012-.81-.005-1.234.02a18.13 18.13 0 00-3.607.566c-.109.026-.218.052-.328.083-.295.084-.59.167-.874.264-1.478.482-2.816 1.112-3.94 1.832-.4.245-.766.508-1.1.778-.591.47-1.1.952-1.498 1.453.09.058.18.122.264.2.437.398.585.95.328 1.22-.25.277-.81.168-1.247-.23l-.007-.007a.612.612 0 01-.083.103c-.502.54-1.132.778-1.402.52-.276-.25-.09-.893.418-1.44l.096-.096h-.006c-.437-.405-.585-.952-.328-1.222.25-.276.81-.173 1.24.232.13.122.239.257.31.392.41-.713 1.022-1.421 1.812-2.083-.122-2.257.495-4.05 1.865-4.809a3.156 3.156 0 011.748-.353c-.2.064-.392.141-.578.238-1.215.669-1.833 2.16-1.865 4.063 1.151-.765 2.533-1.434 4.07-1.941.295-2.11 1.189-3.665 2.603-4.153.566-.2 1.164-.212 1.78-.058-.205.026-.41.07-.61.135-1.311.462-2.173 1.831-2.526 3.716a18.138 18.138 0 013.87-.585c.778-1.878 1.973-3.112 3.42-3.26.591-.064 1.176.058 1.748.353a2.908 2.908 0 00-.63-.006c-1.35.135-2.488 1.228-3.259 2.92 1.221.056 2.32.269 3.234.622.765-.99 1.684-1.581 2.7-1.633a3.056 3.056 0 011.729.438" id="Fill-4" fill="#000"/>
        <path d="M30.922 7.1a3.473 3.473 0 00-.75-.04c-1.269.063-2.406.829-3.343 2.09.976.603 1.656 1.408 1.92 2.375.193.688.162 1.416-.07 2.143a3.351 3.351 0 00-.124-.742c-.31-1.123-1.168-2.02-2.422-2.654a7.633 7.633 0 00-1.307-.527c-1.068-.34-2.306-.525-3.667-.565-.48-.015-.975-.007-1.486.023-1.378.07-2.847.294-4.34.682-.132.03-.263.062-.395.1-.356.101-.712.201-1.052.317-1.78.58-3.389 1.339-4.743 2.205-.48.295-.921.611-1.323.937-.712.564-1.323 1.145-1.802 1.748.108.07.216.147.316.24.526.48.704 1.145.395 1.47-.302.333-.974.202-1.5-.279l-.009-.007a.685.685 0 01-.1.124c-.604.65-1.362.936-1.687.626-.333-.302-.108-1.075.503-1.733l.116-.116h-.008c-.526-.487-.704-1.145-.394-1.47.301-.333.974-.21 1.493.279a1.9 1.9 0 01.372.472c.495-.86 1.23-1.71 2.181-2.508-.147-2.714.596-4.874 2.244-5.787.634-.34 1.338-.48 2.104-.425-.24.077-.472.17-.696.286-1.462.805-2.205 2.6-2.243 4.89 1.384-.921 3.048-1.725 4.897-2.337.355-2.537 1.43-4.41 3.133-4.997.68-.24 1.4-.256 2.143-.07-.247.03-.495.085-.734.162-1.579.557-2.616 2.205-3.041 4.472a21.9 21.9 0 014.657-.704c.936-2.259 2.376-3.744 4.117-3.923.711-.077 1.415.07 2.104.426a3.563 3.563 0 00-.758-.008c-1.625.162-2.995 1.478-3.923 3.513 1.47.07 2.793.325 3.892.75.92-1.191 2.027-1.903 3.25-1.964.719-.04 1.423.138 2.08.525" id="Fill-6" fill="#000"/>
        <path d="M19.964 29.832a2.086 2.086 0 00-.453-.023c-.765.037-1.452.499-2.017 1.26.588.365.999.85 1.158 1.434.117.416.098.854-.042 1.294a2.078 2.078 0 00-.075-.449c-.187-.677-.705-1.219-1.462-1.601a4.618 4.618 0 00-.789-.318c-.644-.206-1.391-.318-2.213-.341a9.386 9.386 0 00-.897.015c-.83.04-1.718.176-2.62.41-.079.019-.159.038-.238.06-.214.062-.43.122-.635.192-1.074.35-2.045.808-2.862 1.331-.29.178-.556.368-.799.565-.43.34-.799.691-1.088 1.056.065.042.13.088.191.144.318.29.425.691.239.888-.183.2-.589.121-.907-.169l-.004-.004a.416.416 0 01-.061.075c-.364.392-.822.565-1.018.378-.201-.183-.065-.65.304-1.046l.07-.07H3.74c-.317-.295-.425-.691-.238-.888.182-.2.589-.126.901.168.093.09.173.187.224.286.3-.519.743-1.033 1.317-1.513-.089-1.64.36-2.943 1.354-3.494.384-.205.809-.29 1.27-.257a2.718 2.718 0 00-.42.174c-.882.484-1.33 1.568-1.354 2.95a12.397 12.397 0 012.956-1.41c.215-1.532.864-2.662 1.892-3.016a2.21 2.21 0 011.293-.043c-.15.02-.299.052-.444.099-.952.336-1.578 1.33-1.835 2.699a13.142 13.142 0 012.811-.425c.565-1.363 1.434-2.26 2.485-2.368.43-.046.854.042 1.27.257a2.136 2.136 0 00-.457-.005c-.981.098-1.808.892-2.368 2.12.887.042 1.685.197 2.349.454.555-.72 1.223-1.15 1.961-1.187a2.22 2.22 0 011.256.318" id="Fill-8" fill="#000"/>
      </g>
      <g id="Logo_BotLeft" transform="translate(.168 44.482)">
        <path d="M34.917 1.771v7.625H4.157C2.964 4.872 2.774 1.77 2.774 1.77h32.143z" id="Fill-3" fill="#000"/>
        <path d="M34.605 10.794v8.357H6.994a55.435 55.435 0 01-3.246-8.357h30.857z" id="Fill-5" fill="#B12B28"/>
        <path d="M34.605 20.623v8.357H14.028a46.254 46.254 0 01-5.78-8.357h26.357z" id="Fill-7" fill="#000"/>
        <path d="M14.3 30.272h20.572V43.13c-8.818-2.763-15.502-7.437-20.571-12.857" id="Fill-9" fill="#B12B28"/>
        <path d="M34.226 9.257H4.394C3.236 4.852 3.052 1.832 3.052 1.832h31.174v7.425zm0 9.76H8.05a50.6 50.6 0 01-3.077-7.737h29.254v7.738zm0 9.762H14.624a42.81 42.81 0 01-5.506-7.737h25.108v7.737zm0 12.034c-7.566-2.152-13.301-5.791-17.65-10.01h17.65v10.01zM0 0s2.15 35.38 36 45V0H0z" id="Fill-1" fill="#E3AB3A"/>
      </g>
      <g id="Logo_TopLeft" transform="translate(.168 7.482)">
        <path d="M36 37H0V7.357S14.084 1.193 36 0v37z" id="Fill-1" fill="#E3AB3A"/>
        <path d="M27.083 19.598a2.852 2.852 0 00-.623-.033c-1.054.052-2 .696-2.777 1.753.81.506 1.375 1.182 1.594 1.993.16.578.135 1.188-.058 1.798a2.867 2.867 0 00-.103-.623c-.257-.941-.97-1.694-2.012-2.227a6.349 6.349 0 00-1.086-.441c-.887-.286-1.916-.441-3.047-.474-.399-.013-.81-.006-1.235.02-1.144.059-2.365.246-3.606.57-.11.027-.219.053-.328.085-.296.085-.591.169-.874.266-1.479.487-2.816 1.123-3.941 1.85-.399.247-.765.513-1.1.786-.59.474-1.099.96-1.497 1.467.09.058.18.123.263.202.438.401.585.96.328 1.232-.25.28-.81.17-1.247-.233l-.006-.007a.592.592 0 01-.084.104c-.501.545-1.131.785-1.401.526-.277-.253-.09-.902.418-1.454l.096-.098H4.75c-.438-.409-.585-.96-.328-1.233.25-.28.81-.175 1.24.234.129.123.238.26.309.396.411-.72 1.022-1.435 1.813-2.103-.122-2.279.495-4.09 1.864-4.856a3.13 3.13 0 011.749-.357c-.2.065-.392.143-.579.24-1.215.675-1.832 2.181-1.864 4.103 1.15-.773 2.533-1.448 4.07-1.96.295-2.13 1.188-3.7 2.603-4.194.565-.201 1.163-.214 1.78-.058a3.319 3.319 0 00-.61.136c-1.312.467-2.173 1.85-2.527 3.752a18.016 18.016 0 013.87-.59c.778-1.896 1.974-3.143 3.42-3.291.592-.066 1.177.058 1.749.356a2.92 2.92 0 00-.63-.006c-1.35.137-2.488 1.24-3.26 2.947 1.222.058 2.321.273 3.234.63.765-1 1.684-1.598 2.7-1.65a3.032 3.032 0 011.73.442" id="Fill-3" fill="#000"/>
        <path d="M31.758 7.42a3.442 3.442 0 00-.75-.039c-1.269.062-2.407.836-3.343 2.109.975.61 1.656 1.422 1.92 2.4.193.694.162 1.429-.07 2.163a3.498 3.498 0 00-.124-.75c-.31-1.133-1.168-2.039-2.422-2.68a7.59 7.59 0 00-1.308-.531c-1.067-.344-2.305-.531-3.666-.57-.48-.016-.976-.008-1.487.023-1.377.07-2.846.297-4.34.688a8.004 8.004 0 00-.394.1c-.356.103-.712.205-1.052.32-1.78.588-3.39 1.353-4.743 2.228-.48.297-.921.617-1.324.945-.71.57-1.322 1.156-1.802 1.766.108.07.216.148.317.242.526.484.704 1.156.395 1.484-.302.337-.975.204-1.501-.281l-.008-.007a.687.687 0 01-.1.124c-.604.656-1.362.945-1.687.633-.333-.304-.109-1.086.503-1.75l.116-.117H4.88c-.526-.492-.704-1.157-.394-1.484.301-.337.974-.211 1.492.28.155.15.287.314.372.478.496-.867 1.23-1.727 2.182-2.532-.147-2.742.596-4.921 2.243-5.844.635-.343 1.339-.484 2.105-.429a4.53 4.53 0 00-.696.289c-1.463.812-2.205 2.624-2.244 4.937 1.385-.93 3.048-1.742 4.898-2.36.355-2.561 1.43-4.452 3.133-5.046.68-.242 1.4-.258 2.143-.07a4.004 4.004 0 00-.735.164c-1.578.562-2.615 2.226-3.04 4.515a21.701 21.701 0 014.657-.71c.936-2.282 2.376-3.782 4.116-3.96.712-.08 1.416.069 2.104.428a3.523 3.523 0 00-.757-.008c-1.625.165-2.995 1.493-3.923 3.547 1.47.07 2.793.329 3.892.758.92-1.203 2.027-1.922 3.249-1.984.72-.039 1.424.14 2.081.53" id="Fill-5" fill="#000"/>
        <path d="M20.8 30.374c-.15-.023-.3-.033-.453-.023-.766.037-1.453.504-2.018 1.273.59.367 1 .858 1.159 1.448.117.42.097.862-.042 1.306a2.079 2.079 0 00-.075-.453c-.187-.684-.705-1.231-1.462-1.617a4.555 4.555 0 00-.789-.321c-.645-.208-1.392-.32-2.213-.344a9.275 9.275 0 00-.897.014c-.831.042-1.718.18-2.62.415a4.59 4.59 0 00-.238.06c-.215.063-.43.124-.635.194a12.53 12.53 0 00-2.863 1.344c-.29.18-.555.373-.798.57-.43.345-.799.698-1.088 1.066.065.043.13.09.19.146.318.293.426.698.24.896-.183.203-.589.124-.907-.17l-.005-.004a.414.414 0 01-.06.076c-.365.396-.822.57-1.018.382-.2-.184-.066-.656.304-1.057l.07-.07h-.005c-.318-.298-.425-.698-.238-.896.182-.203.588-.128.9.17.094.09.173.188.225.287.299-.524.742-1.042 1.317-1.528-.089-1.655.36-2.97 1.354-3.527a2.277 2.277 0 011.27-.26 2.607 2.607 0 00-.42.176c-.882.49-1.33 1.583-1.354 2.979.836-.56 1.84-1.052 2.956-1.424.214-1.546.864-2.688 1.891-3.046.41-.146.845-.156 1.293-.043-.149.02-.298.052-.443.1-.952.34-1.578 1.344-1.835 2.725a13.064 13.064 0 012.811-.429c.565-1.377 1.433-2.282 2.484-2.39.43-.047.855.042 1.27.258a2.075 2.075 0 00-.457-.003c-.98.098-1.807.9-2.368 2.14.887.043 1.686.198 2.35.457.555-.726 1.223-1.16 1.96-1.197a2.2 2.2 0 011.257.32" id="Fill-7" fill="#000"/>
      </g>
      <g id="Logo_TopRight" transform="translate(36.168 7.482)">
        <path d="M1.857 18.04h32.286v-7.363H1.857v7.362zm0 8.574h32.286v-6.517H1.857v6.517zm0 8.919h32.286v-6.86H1.857v6.86zm0-33.599c19.653 1.078 32.286 6.68 32.286 6.68v.006H1.857V1.934zM0 0v37h36V7.36S21.917 1.193 0 0z" id="Fill-1" fill="#E3AB3A"/>
        <path d="M34.521 8.614v.006H1.877V1.934c19.87 1.078 32.644 6.68 32.644 6.68" id="Fill-3" fill="#000"/>
        <path id="Fill-4" fill="#B12B28" d="M1.877 18.04h32.644v-7.363H1.877z"/>
        <path id="Fill-5" fill="#000" d="M1.877 26.614h32.644v-6.517H1.877z"/>
        <path id="Fill-6" fill="#B12B28" d="M1.877 35.533h32.644v-6.86H1.877z"/>
      </g>
      <g id="Logo_Center" transform="translate(21.168 28.482)">
        <mask id="mask-2" fill="#fff">
          <use xlink:href="#path-1"/>
        </mask>
        <path d="M15.564 34h-1.128C6.463 34 0 27.61 0 19.73V0h30v19.73C30 27.61 23.537 34 15.564 34" id="Fill-1" fill="#E8B964" mask="url(#mask-2)"/>
        <path d="M1.877 2.08v17.09c0 7.25 5.98 13.15 13.331 13.15h.001c7.35 0 13.33-5.9 13.33-13.15V2.08H1.878zm13.332 30.827c-7.68 0-13.926-6.163-13.926-13.737V1.493h27.852V19.17c0 7.574-6.248 13.737-13.926 13.737z" id="Fill-4" fill="#000" mask="url(#mask-2)"/>
        <path d="M15.209 12.732a32.855 32.855 0 01-.126-1.701c-.06-1.145-.312-1.923-.65-2.44 2.527 1.315 1.658 3.572.776 4.141m10.34.89c-.71 0-.936.85-.981.065-.047-.739 1.379-1.557 1.551-1.655-.006 0-.12.027-.73.177-.749.176-.934.49-.934-.118 0-.602 1.658-1.544 1.14-1.498-.524.039-1.273.517-1.273.11 0-.404.498-1.079.498-1.079s-.618.046-1.407 1.146c-.79 1.098.405 3.408.816 4.284.345.734-1.44 1.433-2.036 1.643-.81-.504-1.997-.674-3.482-.55-1.44.124-2.288-.144-2.799-.916.073-.36.232-.89.431-.804.299.13.166.922.166.922s.252-.248.45-.805c.2-.563-.065-1.674.465-1.51.537.162.935 1.19.935 1.19s.193-.373.253-1.42c.059-1.053-1.294-2.29-.359-2.1.895.177 1.393 1.132 1.446 1.23 0-.079-.02-.628-.464-1.544-.478-.988-3.011-2.564-2.176-2.65.796-.078 2.441.236 2.627.269-.033-.04-.18-.164-.756-.688-.77-.692-3.615-.372-3.442-.627.172-.249.822-.641.822-.641h-.358c-.365 0-1.512.425-1.817.811-.173.222-.637.555-1.002.792-.497-.099-.909.032-.975.117-.173.229-1.678.485-2.693 1.197-1.015.714.464 1.12 1.446 1.027.988-.085.988 1.375-.577 1.832-1.565.458-1.333 2.454-1.333 2.454-1.12-1.06-1.128-1.053-2.282-.766-1.154.281-1.863 1.865-2.281 2.5-.412.634.192 2.564.192 2.564l1.029-.222s-.034-.668 0-1.74c.032-1.08 1.737-2.408 1.763-1.74.034.66 2.348 1.949 2.348 2.296 0 .346-1.95.163-2.487 1.577-.544 1.412.458 2.59.756 3.335.299.753 1.652.59 1.652.59l.053-1.04s-.16-.026-.571-.026c-.404 0-.809-.832-.888-1.95-.087-1.125.351-.936 1.432-.831 1.081.11 2.169-.66 2.169-.66s.08.228.863.96c1.359 1.152 4.423.733 4.363 1.349-.053.614 1.247 2.531 1.022 2.793-.226.262-1.327.706-2.155 1.139-.83.431-1.473 1.55-1.473 1.55l.955.419.172-.373c.166-.374 2.441-1.871 3.244-1.956.802-.085.802-.707.928-2.244 0 .458 1.228 1.288 1.559 1.537.338.249-1.26 1.164-2.023 1.832-.756.66-1.008 2.616-1.008 2.616l1.346.295s.212-.667.299-1.498c.08-.832 3.243-2.5 3.415-3.245.166-.746-.59-1.204-.763-1.707-.165-.498.717-.164.763-2.493.013-.877-.225-1.55-.696-2.041.637-.301 1.79-.838 2.03-.857.285-.02.557.176.623.222-.073-.105-.378-.517-.378-.727 0-.24.643-.438.643-.438s-1.068-.11-.683-.765c.385-.648 1.32-.916.617-.916" id="Fill-6" fill="#000" mask="url(#mask-2)"/>
        <path d="M12.685 7.922s.145-.189.153-.393c.008-.204.33-.695.566-.724.238-.03.383-.046.383-.046s-.352.438-.374.725c-.023.287-.728.438-.728.438" id="Fill-8" fill="#000" mask="url(#mask-2)"/>
      </g>
    </g>
    <g id="Top_UI" transform="translate(109.774 15.914)">
      <g id="Music_fill" transform="translate(461.226 95.716)">
        <ellipse id="Button3" fill="#E3AB3A" cx="31" cy="31.87" rx="31" ry="31.5"/>
        <path d="M21.746 21.355l27.183-5.985c.027.35.065.619.065.888.003 7.967.013 15.935-.002 23.903-.008 4.114-3.024 7.262-6.926 7.166-2.807-.068-4.913-1.459-6.063-4.089-1.126-2.575-.827-5.105.935-7.305 1.821-2.275 4.219-2.96 6.992-2.318.334.077.66.193 1.074.316V22.314c-1.447.306-2.881.6-4.312.915-4.726 1.038-9.445 2.114-14.182 3.097-.831.173-.94.539-.936 1.272.022 5.584.02 11.169.01 16.753-.008 3.742-2.698 6.698-6.34 6.999-3.404.28-6.576-2.34-7.154-5.91-.563-3.476 1.58-7.013 4.975-7.776 1.454-.327 3.035-.055 4.681-.055V21.355z" id="Icon_Music" fill="#000"/>
      </g>
      <g id="Phone_Alt" transform="translate(371.226 95.716)">
        <ellipse id="Button2" stroke="#E3AB3A" cx="31" cy="31.87" rx="30.5" ry="31"/>
        <path d="M15.971 15.848c1.218-1.298 2.945-1.428 4.601-1.478.3-.008.722.366.903.677 1.369 2.357 2.694 4.74 4.028 7.12.437.78.188 1.46-.395 2.009-.899.848-1.853 1.633-2.758 2.474-1.34 1.245-1.32 1.586-.469 3.226 2.58 4.973 6.279 8.758 11.112 11.404 1.533.838 1.875.841 3.05-.507.815-.934 1.59-1.904 2.408-2.836.68-.777 1.44-.786 2.305-.254 2.009 1.234 4.026 2.455 6.077 3.613.976.55 1.24 1.216 1.15 2.384-.318 4.206-3.9 5.794-6.865 6.516-1.592.387-3.14.074-4.679-.39C27 46.963 20.282 40.703 15.716 31.95c-1.24-2.378-1.77-5.151-2.601-7.75-.11-.347-.084-.74-.115-1.05.088-2.87 1.102-5.309 2.971-7.302z" id="Icon_Phone" fill="#E3AB3A"/>
      </g>
      <g id="Phone_fill" transform="translate(371.226 95.716)">
        <ellipse id="Button2" fill="#E3AB3A" cx="31" cy="31.87" rx="31" ry="31.5"/>
        <path d="M15.971 15.848c1.218-1.298 2.945-1.428 4.601-1.478.3-.008.722.366.903.677 1.369 2.357 2.694 4.74 4.028 7.12.437.78.188 1.46-.395 2.009-.899.848-1.853 1.633-2.758 2.474-1.34 1.245-1.32 1.586-.469 3.226 2.58 4.973 6.279 8.758 11.112 11.404 1.533.838 1.875.841 3.05-.507.815-.934 1.59-1.904 2.408-2.836.68-.777 1.44-.786 2.305-.254 2.009 1.234 4.026 2.455 6.077 3.613.976.55 1.24 1.216 1.15 2.384-.318 4.206-3.9 5.794-6.865 6.516-1.592.387-3.14.074-4.679-.39C27 46.963 20.282 40.703 15.716 31.95c-1.24-2.378-1.77-5.151-2.601-7.75-.11-.347-.084-.74-.115-1.05.088-2.87 1.102-5.309 2.971-7.302z" id="Icon_Phone" fill="#000"/>
      </g>
      <g id="Location_Alt" transform="translate(281.226 95.716)">
        <ellipse id="Button1" stroke="#E3AB3A" cx="31" cy="31.87" rx="30.5" ry="31"/>
        <path d="M29.808 20.12c-3.4-.001-6.181 2.82-6.24 6.332-.056 3.408 2.83 6.406 6.177 6.418 3.375.013 6.191-2.862 6.228-6.356.036-3.484-2.769-6.392-6.165-6.394m.7 29.25c-4.625-5.198-8.891-10.413-12.025-16.533-3.415-6.67-.43-13.409 3.875-16.69 5.224-3.981 12.476-3.647 17.21.784 4.525 4.236 5.696 10.114 2.999 15.755-2.989 6.25-7.41 11.434-12.06 16.684" id="Icon_Location" fill="#E3AB3A"/>
      </g>
      <g id="Location_fill" transform="translate(281.226 95.716)">
        <ellipse id="Button1" fill="#E3AB3A" cx="31" cy="31.87" rx="31" ry="31.5"/>
        <path d="M29.808 20.12c-3.4-.001-6.181 2.82-6.24 6.332-.056 3.408 2.83 6.406 6.177 6.418 3.375.013 6.191-2.862 6.228-6.356.036-3.484-2.769-6.392-6.165-6.394m.7 29.25c-4.625-5.198-8.891-10.413-12.025-16.533-3.415-6.67-.43-13.409 3.875-16.69 5.224-3.981 12.476-3.647 17.21.784 4.525 4.236 5.696 10.114 2.999 15.755-2.989 6.25-7.41 11.434-12.06 16.684" id="Icon_Location" fill="#000"/>
      </g>
      <g id="Weather" transform="translate(0 76)">
        <path d="M74.614 92.036c-6.083 5.906-13.363 9.472-21.92 9.911-10.538.543-19.502-3.108-26.65-10.9-1.404-1.533-2.652-2.272-4.882-2.182-11.145.45-20.145-7.44-21.077-18.188-.954-10.995 6.199-19.964 17.338-21.757 1.542-.249 2.897-.304 3.441-2.48 3.76-15.042 16.967-22.749 31.95-18.837.428.112.872.163 1.279.238 1.71-3.317 3.11-6.707 5.077-9.729 9.256-14.22 25.668-20.778 42.335-17.11 15.88 3.495 27.977 16.614 30.418 33.24.305 2.08.943 3.075 2.965 3.794 13.81 4.904 20.865 19.668 16.056 33.307-4.818 13.668-19.53 20.809-33.317 16.166-.969-.326-1.92-.704-2.858-1.05-13.45 15.182-25.388 16.87-40.155 5.577" id="Icon_Cloud" stroke="#E3AB3A" stroke-width="3"/>
        <text id="76" font-family="ProximaNova-Light, Proxima Nova" font-size="45" font-weight="300" fill="#FFF">
          <tspan x="51.791" y="74.086">76</tspan>
        </text>
        <circle id="Degrees" stroke="#FFF" stroke-width="2" cx="110.226" cy="46.086" r="3"/>
      </g>
      <g id="Call_UI" transform="translate(402.226 57.547)">
        <g id="Calling" transform="translate(196 109.54)" fill="#E3AB3A" font-family="ProximaNova-Light, Proxima Nova" font-size="25" font-weight="300">
          <text id="Sam-is-calling…">
            <tspan x="25.175" y="23">Sam is calling…</tspan>
          </text>
        </g>
        <rect id="PhoneCallBackground" fill="#E3AB3A" x="196" y="38.539" width="213" height="65" rx="32"/>
        <g id="Phone_Hangup" transform="translate(313 47.427)">
          <ellipse id="Button2" fill="#B12B28" cx="23" cy="23.612" rx="23" ry="23.5"/>
          <path d="M12.207 11.22c.905-.973 2.188-1.07 3.418-1.108.223-.006.536.274.67.507 1.017 1.768 2.002 3.556 2.993 5.34.325.586.14 1.096-.293 1.507-.668.636-1.377 1.225-2.05 1.856-.995.934-.98 1.19-.348 2.42 1.916 3.73 4.664 6.568 8.255 8.552 1.139.629 1.393.631 2.266-.38.605-.7 1.181-1.428 1.788-2.127.506-.582 1.07-.589 1.713-.19 1.492.926 2.99 1.841 4.514 2.71.725.412.921.911.855 1.787-.237 3.155-2.898 4.346-5.1 4.887-1.183.29-2.333.056-3.476-.292-7.013-2.132-12.002-6.827-15.395-13.392-.921-1.784-1.314-3.863-1.932-5.813-.082-.26-.062-.554-.085-.787.065-2.153.819-3.981 2.207-5.476z" id="Icon_Phone" fill="#000" transform="rotate(131 23 23.612)"/>
        </g>
        <g id="Phone_Answer" transform="translate(245 47.427)">
          <ellipse id="Button2" fill="#009632" cx="23" cy="23.612" rx="23" ry="23.5"/>
          <path d="M12.207 11.22c.905-.973 2.188-1.07 3.418-1.108.223-.006.536.274.67.507 1.017 1.768 2.002 3.556 2.993 5.34.325.586.14 1.096-.293 1.507-.668.636-1.377 1.225-2.05 1.856-.995.934-.98 1.19-.348 2.42 1.916 3.73 4.664 6.568 8.255 8.552 1.139.629 1.393.631 2.266-.38.605-.7 1.181-1.428 1.788-2.127.506-.582 1.07-.589 1.713-.19 1.492.926 2.99 1.841 4.514 2.71.725.412.921.911.855 1.787-.237 3.155-2.898 4.346-5.1 4.887-1.183.29-2.333.056-3.476-.292-7.013-2.132-12.002-6.827-15.395-13.392-.921-1.784-1.314-3.863-1.932-5.813-.082-.26-.062-.554-.085-.787.065-2.153.819-3.981 2.207-5.476z" id="Icon_Phone" fill="#000"/>
        </g>
        <path d="M0 38.54C0 17.254 17.255 0 38.54 0h231.92C288.433 0 303 14.568 303 32.54h0v6" id="Phone_Connector" stroke="#E3AB3A"/>
      </g>
      <text id="7:00-AM" font-family="ProximaNova-Light, Proxima Nova" font-size="35" font-weight="300" fill="#FFF">
        <tspan x="338.666" y="32.086">7:00 AM</tspan>
      </text>
    </g>
    <g id="ShiftGears" transform="translate(396 695)" fill-rule="nonzero">
      <g id="Gears_Norm">
        <g id="Reverse" transform="translate(64)">
          <path d="M4.756 20.37v-7.98h26.222l3.778 7.98H39.6l-3.378-8.106a4.44 4.44 0 002.378-1.428c.637-.728.956-1.694.956-2.898V4.452c0-.672-.126-1.288-.378-1.848a4.21 4.21 0 00-1-1.407 4.525 4.525 0 00-1.445-.882A4.625 4.625 0 0035.067 0H0v20.37h4.756z" id="Path" fill="#E3AB3A"/>
          <path d="M33.111 7.938H4.756V4.452h28.31c.534 0 .956.126 1.267.378.311.252.467.672.467 1.26v.462c0 .56-.17.931-.511 1.113-.34.182-.733.273-1.178.273z" id="Path" fill="#000"/>
        </g>
        <g id="Neutral" transform="translate(129)" fill="#E3AB3A">
          <path id="Path" d="M4.756 20.37V4.914l30 15.456h4.8V0H34.8v15.456L4.8 0H0v20.37z"/>
        </g>
        <g id="Drive" transform="translate(193)">
          <path d="M35.067 20.37c.563 0 1.118-.098 1.666-.294a4.238 4.238 0 001.445-.861c.415-.378.748-.84 1-1.386.252-.546.378-1.183.378-1.911V4.452c0-.672-.126-1.288-.378-1.848a4.21 4.21 0 00-1-1.407 4.525 4.525 0 00-1.445-.882A4.625 4.625 0 0035.067 0H0v20.37h35.067z" id="Path" fill="#E3AB3A"/>
          <path d="M33.111 15.918H4.756V4.452h28.4c.533 0 .94.175 1.222.525.281.35.422.805.422 1.365v7.686c0 .56-.17 1.015-.511 1.365-.34.35-.733.525-1.178.525z" id="Path" fill="#000"/>
        </g>
        <g id="Park">
          <path d="M4.756 20.37v-7.98h30.31c.564 0 1.12-.098 1.667-.294a4.238 4.238 0 001.445-.861c.415-.378.748-.84 1-1.386.252-.546.378-1.183.378-1.911V4.452c0-.672-.126-1.288-.378-1.848a4.21 4.21 0 00-1-1.407 4.525 4.525 0 00-1.445-.882A4.625 4.625 0 0035.067 0H0v20.37h4.756z" id="Path" fill="#E3AB3A"/>
          <path d="M33.111 7.938H4.756V4.452h28.31c.504 0 .92.119 1.245.357.326.238.489.651.489 1.239v.462c0 .56-.178.938-.533 1.134-.356.196-.741.294-1.156.294z" id="Path" fill="#000"/>
        </g>
      </g>
      <g id="Gears_Alt">
        <g id="Reverse_Alt" transform="translate(64)">
          <path d="M4.756 20.37v-7.98h26.222l3.778 7.98H39.6l-3.378-8.106a4.44 4.44 0 002.378-1.428c.637-.728.956-1.694.956-2.898V4.452c0-.672-.126-1.288-.378-1.848a4.21 4.21 0 00-1-1.407 4.525 4.525 0 00-1.445-.882A4.625 4.625 0 0035.067 0H0v20.37h4.756z" id="Path" fill="#FFF"/>
          <path d="M33.111 7.938H4.756V4.452h28.31c.534 0 .956.126 1.267.378.311.252.467.672.467 1.26v.462c0 .56-.17.931-.511 1.113-.34.182-.733.273-1.178.273z" id="Path" fill="#000"/>
        </g>
        <g id="Neutral_Alt" transform="translate(129)" fill="#FFF">
          <path id="Path" d="M4.756 20.37V4.914l30 15.456h4.8V0H34.8v15.456L4.8 0H0v20.37z"/>
        </g>
        <g id="Drive_Alt" transform="translate(193)">
          <path d="M35.067 20.37c.563 0 1.118-.098 1.666-.294a4.238 4.238 0 001.445-.861c.415-.378.748-.84 1-1.386.252-.546.378-1.183.378-1.911V4.452c0-.672-.126-1.288-.378-1.848a4.21 4.21 0 00-1-1.407 4.525 4.525 0 00-1.445-.882A4.625 4.625 0 0035.067 0H0v20.37h35.067z" id="Path" fill="#FFF"/>
          <path d="M33.111 15.918H4.756V4.452h28.4c.533 0 .94.175 1.222.525.281.35.422.805.422 1.365v7.686c0 .56-.17 1.015-.511 1.365-.34.35-.733.525-1.178.525z" id="Path" fill="#000"/>
        </g>
        <g id="Park_Alt">
          <path d="M4.756 20.37v-7.98h30.31c.564 0 1.12-.098 1.667-.294a4.238 4.238 0 001.445-.861c.415-.378.748-.84 1-1.386.252-.546.378-1.183.378-1.911V4.452c0-.672-.126-1.288-.378-1.848a4.21 4.21 0 00-1-1.407 4.525 4.525 0 00-1.445-.882A4.625 4.625 0 0035.067 0H0v20.37h4.756z" id="Path" fill="#FFF"/>
          <path d="M33.111 7.938H4.756V4.452h28.31c.504 0 .92.119 1.245.357.326.238.489.651.489 1.239v.462c0 .56-.178.938-.533 1.134-.356.196-.741.294-1.156.294z" id="Path" fill="#000"/>
        </g>
      </g>
    </g>
    <g id="GaugeLevels" transform="translate(312 364)" fill="#B12B28">
      <path d="M7.64 143A189.428 189.428 0 000 185h46.75a144.21 144.21 0 016.5-31.964L7.64 143z" id="Speed1"/>
      <path d="M7.64 143A189.428 189.428 0 000 185h46.75a144.21 144.21 0 016.5-31.964L7.64 143z" id="Sspeed1ALT"/>
      <path d="M27.34 98a193.352 193.352 0 00-19.7 44.57A193.063 193.063 0 000 185h46.75c.97-11.16 3.18-21.962 6.5-32.29a147.911 147.911 0 0115.63-33.589L27.34 98z" id="Speed2"/>
      <path d="M64.87 52a197.794 197.794 0 00-37.53 45.555A194.812 194.812 0 007.641 142.35a194.908 194.908 0 00-7.64 42.65h46.75a149.093 149.093 0 016.49-32.457c3.81-11.973 9.09-23.3 15.63-33.77a151.318 151.318 0 0128.95-33.979L64.87 52z" id="Speed3"/>
      <path d="M142.1 57.43a152.3 152.3 0 00-44.279 27.102A151.89 151.89 0 0068.88 118.61a149.587 149.587 0 00-15.63 33.848 149.194 149.194 0 00-6.5 32.541H0a195.935 195.935 0 017.641-42.76A195.605 195.605 0 0127.34 97.325a198.548 198.548 0 0137.531-45.672 199.141 199.141 0 0158.469-36.654L142.1 57.43z" id="Speed4"/>
      <path d="M198.5 0v46.43c-14.96 0-29.39 2.14-43.03 6.13-4.55 1.33-9.01 2.87-13.37 4.6a152.448 152.448 0 00-44.28 27.15 152.315 152.315 0 00-28.94 34.15 149.607 149.607 0 00-15.62 33.93 149.65 149.65 0 00-6.5 32.61H0a196.606 196.606 0 017.64-42.85 196.253 196.253 0 0119.7-45.01 198.991 198.991 0 0137.54-45.77 198.895 198.895 0 0158.46-36.73c6.17-2.51 12.49-4.72 18.95-6.61C160.12 2.8 178.98 0 198.5 0" id="Speed5"/>
      <path d="M273.66 14.64L254.9 57.17c-17.44-6.93-36.47-10.74-56.4-10.74-14.97 0-29.4 2.14-43.03 6.13-4.55 1.33-9 2.87-13.37 4.61h-.01a152.186 152.186 0 00-44.27 27.15 151.883 151.883 0 00-28.94 34.15 149.174 149.174 0 00-15.63 33.92 149.734 149.734 0 00-6.5 32.61H0c.97-14.79 3.58-29.13 7.64-42.85a195.425 195.425 0 0119.7-45.01 198.692 198.692 0 0137.53-45.77 198.937 198.937 0 0158.46-36.73 197.03 197.03 0 0118.95-6.61C160.12 2.8 178.97 0 198.5 0c26.6 0 51.97 5.2 75.16 14.64" id="Speed6"/>
      <path d="M332.13 51.37l-32.94 32.94a152.483 152.483 0 00-44.29-27.14c-17.44-6.93-36.47-10.74-56.4-10.74-14.96 0-29.39 2.14-43.03 6.13a151.735 151.735 0 00-13.37 4.6 152.267 152.267 0 00-44.28 27.16 152.074 152.074 0 00-28.94 34.14 150.112 150.112 0 00-15.63 33.93 149.71 149.71 0 00-6.5 32.61H0c.98-14.79 3.58-29.13 7.64-42.85a196.253 196.253 0 0119.7-45.01 198.539 198.539 0 0137.54-45.76c17.05-15.43 36.8-27.94 58.46-36.74a197.1 197.1 0 0118.94-6.61C160.12 2.8 178.98 0 198.5 0c26.6 0 51.98 5.2 75.17 14.64 21.66 8.8 41.41 21.31 58.46 36.73" id="Speed7"/>
      <path d="M369.67 97.14l-41.55 21.32a152.804 152.804 0 00-28.93-34.15 152.701 152.701 0 00-44.29-27.14c-17.44-6.93-36.47-10.74-56.4-10.74-14.96 0-29.39 2.14-43.03 6.13a148.39 148.39 0 00-13.37 4.61 152.386 152.386 0 00-44.28 27.15 152.139 152.139 0 00-28.94 34.15 150.038 150.038 0 00-15.63 33.92 149.734 149.734 0 00-6.5 32.61H0a196.11 196.11 0 017.64-42.85 195.38 195.38 0 0119.7-45.01 198.929 198.929 0 0137.53-45.77 199.122 199.122 0 0158.46-36.73c6.17-2.51 12.49-4.72 18.95-6.61C160.12 2.8 178.97 0 198.5 0c26.6 0 51.98 5.2 75.17 14.64a198.937 198.937 0 0158.46 36.73 199.017 199.017 0 0137.54 45.77" id="Speed8"/>
      <path d="M389.371 142.15l-45.62 10.24a150.533 150.533 0 00-15.62-33.93 153.071 153.071 0 00-28.941-34.15h-.009A152.279 152.279 0 00254.9 57.17c-17.439-6.93-36.469-10.74-56.399-10.74-14.971 0-29.391 2.14-43.03 6.13-4.55 1.33-9 2.87-13.371 4.61h-.009A152.2 152.2 0 0097.82 84.32a151.879 151.879 0 00-28.939 34.15 149.994 149.994 0 00-15.63 33.92 149.73 149.73 0 00-6.5 32.61H.001c.979-14.79 3.58-29.13 7.64-42.85a196.26 196.26 0 0119.7-45.01 198.455 198.455 0 0137.53-45.77 198.919 198.919 0 0158.46-36.73 197.283 197.283 0 0118.949-6.61C160.121 2.8 178.971 0 198.501 0c26.599 0 51.979 5.2 75.17 14.64a198.919 198.919 0 0158.46 36.73 198.97 198.97 0 0137.54 45.77 196.695 196.695 0 0119.7 45.01" id="Speed9"/>
      <path d="M397 185h-46.75c-6.707-77.633-72.085-138.563-151.75-138.563-14.963 0-29.392 2.136-43.03 6.124-59.094 17.323-103.281 69.377-108.72 132.44H0C5.553 100.826 63.857 30.993 142.28 8.03 160.12 2.807 178.973 0 198.5 0 303.923 0 390.18 81.675 397 185" id="Speed10"/>
      <path d="M397 185h-46.75c-6.707-77.633-72.085-138.563-151.75-138.563-14.963 0-29.392 2.136-43.03 6.124-59.094 17.323-103.281 69.377-108.72 132.44H0C5.553 100.826 63.857 30.993 142.28 8.03 160.12 2.807 178.973 0 198.5 0 303.923 0 390.18 81.675 397 185" id="Speed10ALT"/>
    </g>
  </g>
</svg>
